# AST/ASF file generated using VICON BodyLanguage
# -----------------------------------------------
:version 1.10
:name VICON
:units
  mass 1.0
  length 0.45
  angle deg
:documentation
   .ast/.asf automatically generated from VICON data using
   VICON BodyBuilder and BodyLanguage model FoxedUp or BRILLIANT.MOD
:root
   order TX TY TZ RX RY RZ
   axis XYZ
   position 0 0 0  
   orientation 0 0 0 
:bonedata
  begin
     id 1 
     name lhipjoint
     direction 0.584852 -0.759097 0.285867 
     length 2.43633 
     axis 0 0 0  XYZ
  end
  begin
     id 2 
     name lfemur
     direction 0.34202 -0.939693 0  
     length 7.14704  
     axis 0 0 20  XYZ
    dof rx ry rz
    limits (-160.0 20.0)
           (-70.0 70.0)
           (-60.0 70.0)
  end
  begin
     id 3 
     name ltibia
     direction 0.342022 -0.939692 0   
     length 7.68483   
     axis 0 0 20   XYZ
    dof rx
    limits (-10.0 170.0)
  end
  begin
     id 4 
     name lfoot
     direction 0.0999605 -0.274639 0.956337   
     length 2.40452   
     axis -90 7.62852e-016 20   XYZ
    dof rx rz
    limits (-45.0 90.0)
           (-70.0 20.0)
  end
  begin
     id 5 
     name ltoes
     direction 1.53468e-011 -4.21881e-011 1   
     length 1.19837   
     axis -90 7.62852e-016 20   XYZ
    dof rx
    limits (-90.0 20.0)
  end
  begin
     id 6 
     name rhipjoint
     direction -0.569886 -0.769002 0.289597   
     length 2.40495  
     axis 0 0 0  XYZ 
  end
  begin
     id 7 
     name rfemur
     direction -0.34202 -0.939693 0   
     length 7.45086   
     axis 0 0 -20   XYZ
    dof rx ry rz
    limits (-160.0 20.0)
           (-70.0 70.0)
           (-70.0 60.0)
  end
  begin
     id 8 
     name rtibia
     direction -0.34202 -0.939693 0   
     length 7.76831   
     axis 0 0 -20   XYZ
    dof rx
    limits (-10.0 170.0)
 end
 begin
     id 9 
     name rfoot
     direction -0.0798572 -0.219406 0.97236   
     length 2.35911  
     axis -90 -7.62852e-016 -20   XYZ
    dof rx rz
    limits (-45.0 90.0)
           (-20.0 70.0)
  end
  begin
     id 10 
     name rtoes
     direction -1.53469e-011 -4.21728e-011 1   
     length 1.18261   
     axis -90 -7.62852e-016 -20   XYZ
    dof rx
    limits (-90.0 20.0)
  end
  begin
     id 11 
     name lowerback
     direction 0.0242088 0.999437 0.0232389   
     length 2.1561   
     axis 0 0 0   XYZ
    dof rx ry rz
    limits (-20.0 45.0)
           (-30.0 30.0)
           (-30.0 30.0)
  end
  begin
     id 12 
     name upperback
     direction -0.0356893 0.999013 -0.0264323   
     length 2.14431   
     axis 0 0 0   XYZ
    dof rx ry rz
    limits (-20.0 45.0)
           (-30.0 30.0)
           (-30.0 30.0)
  end
  begin
     id 13 
     name thorax
     direction -0.0472163 0.998194 -0.0371284   
     length 2.16169   
     axis 0 0 0   XYZ
    dof rx ry rz
    limits (-20.0 45.0)
           (-30.0 30.0)
           (-30.0 30.0)
  end
  begin
     id 14 
     name lowerneck
     direction 0.00863244 0.999921 0.00911972   
     length 1.58651   
     axis 0 0 0   XYZ
    dof rx ry rz
    limits (-20.0 45.0)
           (-30.0 30.0)
           (-30.0 30.0)
  end
  begin
     id 15 
     name upperneck
     direction 0.149523 0.979068 -0.138086   
     length 1.57486   
     axis 0 0 0   XYZ
    dof rx ry rz
    limits (-20.0 45.0)
           (-30.0 30.0)
           (-30.0 30.0)
  end
  begin
     id 16
     name head
     direction 0.0445219 0.997708 -0.0509576  
     length 1.6019  
     axis 0 0 0   XYZ
    dof rx ry rz
    limits (-20.0 45.0)
           (-30.0 30.0)
           (-30.0 30.0)
  end
  begin
     id 17 
     name lclavicle
     direction 0.911271 0.381667 -0.154644  
     length 3.80848  
     axis 0 0 0   XYZ
    dof ry rz
    limits (-20.0 10.0)
           (0.0 20.0)
  end
  begin
     id 18 
     name lhumerus
     direction 1 -4.49003e-011 2.1308e-027   
     length 5.19069   
     axis 180 -30 -90   XYZ
    dof rx ry rz
    limits (-60.0 90.0)
           (-90.0 90.0)
           (-90.0 90.0)
  end
  begin
     id 19
     name lradius
     direction 1 -4.48914e-011 4.01554e-027   
     length 3.30016   
     axis 180 -30 -90   XYZ
    dof rx
    limits (-10.0 170.0)
  end
  begin
     id 20
     name lwrist
     direction 1 -4.49003e-011 1.1934e-026   
     length 1.65008   
     axis -8.46377e-015 90 90   XYZ
    dof ry
    limits (-180.0 0.0)
 end
  begin
     id 21 
     name lhand
     direction 1 -4.49034e-011 2.38659e-026   
     length 0.707698   
     axis -1.52313e-014 90 90   XYZ
    dof rx rz
    limits (-90.0 90.0)
           (-45.0 45.0)
  end
  begin
     id 22 
     name lfingers
     direction 1 -4.48691e-011 4.77775e-026   
     length 0.570564   
     axis -3.04623e-014 90 90   XYZ
    dof rx
    limits (0.0 90.0)
  end
  begin
     id 23
     name lthumb
     direction 0.707107 -6.34832e-011 0.707107   
     length 0.819219   
     axis -90 45 -1.62303e-014   XYZ
    dof rx rz
    limits (-45.0 45.0)
           (-45.0 45.0)
  end
  begin
     id 24 
     name rclavicle
     direction -0.815579 0.573708 -0.0754329   
     length 3.54371  
     axis 0 0 0   XYZ 
    dof ry rz
    limits (-10.0 20.0)
           (-20.0 0.0)
  end
  begin
     id 25 
     name rhumerus
     direction -1 -4.48956e-011 3.05351e-028  
     length 5.23924   
     axis 180 30 90   XYZ
    dof rx ry rz
    limits (-90.0 60.0)
           (-90.0 90.0)
           (-90.0 90.0)
  end
  begin
     id 26 
     name rradius
     direction -1 -4.49013e-011 3.53849e-027   
     length 3.32953   
     axis 180 30 90   XYZ
    dof rx
    limits (-10.0 170.0)
  end
  begin
     id 27 
     name rwrist
     direction -1 -4.48901e-011 1.19374e-026   
     length 1.66477   
     axis -8.46377e-015 -90 -90   XYZ
    dof ry
    limits (-180.0 0.0)
  end
  begin
     id 28
     name rhand
     direction -1 -4.48877e-011 2.38764e-026   
     length 0.607414   
     axis -1.52313e-014 -90 -90   XYZ
    dof rx rz
    limits (-90.0 90.0)
           (-45.0 45.0)
  end
  begin
     id 29
     name rfingers
     direction -1 -4.48882e-011 4.77521e-026   
     length 0.489712   
     axis -3.04623e-014 -90 -90   XYZ
    dof rx
    limits (0.0 90.0)
  end
  begin
     id 30
     name rthumb
     direction -0.707107 -6.34974e-011 0.707107   
     length 0.703132   
     axis -90 -45 1.62303e-014   XYZ
    dof rx rz
    limits (-45.0 45.0)
           (-45.0 45.0)
  end
:hierarchy
  begin
    root lhipjoint rhipjoint lowerback
    lhipjoint lfemur
    lfemur ltibia
    ltibia lfoot
    lfoot ltoes
    rhipjoint rfemur
    rfemur rtibia
    rtibia rfoot
    rfoot rtoes
    lowerback upperback
    upperback thorax
    thorax lowerneck lclavicle rclavicle
    lowerneck upperneck
    upperneck head
    lclavicle lhumerus
    lhumerus lradius
    lradius lwrist
    lwrist lhand lthumb
    lhand lfingers
    rclavicle rhumerus
    rhumerus rradius
    rradius rwrist
    rwrist rhand rthumb
    rhand rfingers
  end

#!OML:ASF E:\VariousWalksJay\Project 1\Capture day 1\Session 1\Actor2.ASF
:FULLY-SPECIFIED
:DEGREES
448
root 4.93648 14.8733 -8.34662 11.1888 -57.659 -15.7878
lowerback 24.2657 -6.43598 16.0635
upperback 14.7744 -6.16335 1.74526
thorax 2.18679 -2.56613 -5.66797
lowerneck 6.29048 -1.18318 -5.06589
upperneck -12.5326 -2.12642 1.11943
head -4.73107 -0.92175 1.30292
rclavicle 8.84592e-014 -2.82274e-014
rhumerus -66.2105 20.536 -120.519
rradius 63.9767
rwrist 19.874
rhand -8.75741 10.7222
rfingers 7.12502
rthumb 17.1799 -18.5383
lclavicle 8.84592e-014 -2.82274e-014
lhumerus -65.7179 -28.96 129.171
lradius 58.6792
lwrist -19.3613
lhand -16.0128 -29.1553
lfingers 7.12502
lthumb 10.1878 0.578057
rfemur -31.2261 -9.93035 28.9614
rtibia 76.2052
rfoot -38.0241 -19.4186
rtoes -16.8661
lfemur -51.8331 5.89424 -3.74673
ltibia 11.4837
lfoot -19.7884 31.3092
ltoes -8.95166
449
root 4.92724 14.92 -8.27959 9.27292 -57.3969 -14.2405
lowerback 24.4385 -6.56503 16.0247
upperback 14.8728 -6.31159 1.62844
thorax 2.18011 -2.63186 -5.72726
lowerneck 6.58721 -1.30283 -5.32336
upperneck -12.431 -2.36561 0.862767
head -4.74425 -1.01266 1.28107
rclavicle -2.74323e-014 -3.06128e-014
rhumerus -66.4511 20.6059 -120.817
rradius 64.0218
rwrist 18.4597
rhand -8.8449 10.2558
rfingers 7.12502
rthumb 17.0957 -19.012
lclavicle -2.74323e-014 -3.06128e-014
lhumerus -65.9088 -29.1469 129.472
lradius 58.6994
lwrist -17.8207
lhand -15.5341 -29.4055
lfingers 7.12502
lthumb 10.6496 0.304626
rfemur -30.082 -9.42804 27.7757
rtibia 75.7831
rfoot -37.8834 -19.9889
rtoes -17.3457
lfemur -50.5514 5.18512 -2.01275
ltibia 10.5783
lfoot -20.3839 32.7408
ltoes -7.73361
450
root 4.91441 14.9698 -8.20714 7.52638 -57.1622 -12.7508
lowerback 24.468 -6.6456 15.956
upperback 14.9325 -6.42372 1.52931
thorax 2.20381 -2.67989 -5.76967
lowerneck 6.86271 -1.41636 -5.59074
upperneck -12.248 -2.59585 0.605016
head -4.72903 -1.1 1.2591
rclavicle 1.2921e-014 1.2921e-014
rhumerus -66.7603 20.7788 -121.119
rradius 64.0924
rwrist 17.1675
rhand -8.93833 9.82743
rfingers 7.12502
rthumb 17.0058 -19.4482
lclavicle 1.2921e-014 1.2921e-014
lhumerus -66.049 -29.2083 129.78
lradius 58.671
lwrist -16.1532
lhand -15.0836 -29.5947
lfingers 7.12502
lthumb 11.0841 0.0926084
rfemur -29.0147 -8.78864 26.6364
rtibia 75.318
rfoot -37.705 -20.5859
rtoes -17.8019
lfemur -49.3326 5.78982 -1.84414
ltibia 9.26021
lfoot -20.8427 32.1808
ltoes -6.2804
451
root 4.89748 15.0205 -8.12983 5.9693 -56.9563 -11.3392
lowerback 24.3561 -6.67937 15.8611
upperback 14.9557 -6.50113 1.4421
thorax 2.25872 -2.71045 -5.80352
lowerneck 7.10788 -1.52527 -5.84925
upperneck -11.9993 -2.81199 0.37577
head -4.68845 -1.18422 1.24273
rclavicle 1.19271e-014 -3.65764e-014
rhumerus -67.1183 21.033 -121.418
rradius 64.1906
rwrist 15.9113
rhand -8.94481 9.49711
rfingers 7.12502
rthumb 16.9996 -19.779
lclavicle 1.19271e-014 -3.65764e-014
lhumerus -66.1491 -29.1289 130.052
lradius 58.6273
lwrist -14.4814
lhand -14.674 -29.6926
lfingers 7.12502
lthumb 11.4792 -0.0268541
rfemur -28.0399 -8.03392 25.5641
rtibia 74.8255
rfoot -37.5021 -21.2044
rtoes -18.2142
lfemur -48.0557 6.47586 -1.59501
ltibia 7.60528
lfoot -21.24 31.6138
ltoes -4.81861
452
root 4.8765 15.0708 -8.0488 4.59722 -56.7625 -10.0175
lowerback 24.133 -6.67233 15.7561
upperback 14.9433 -6.54203 1.35804
thorax 2.33095 -2.72216 -5.84559
lowerneck 7.31564 -1.64031 -6.06754
upperneck -11.7082 -3.01985 0.207523
head -4.62798 -1.27144 1.23729
rclavicle 5.20816e-014 -6.32135e-014
rhumerus -67.4986 21.3104 -121.716
rradius 64.3183
rwrist 14.6314
rhand -8.85652 9.30007
rfingers 7.12502
rthumb 17.0845 -19.9687
lclavicle 5.20816e-014 -6.32135e-014
lhumerus -66.2702 -28.9443 130.284
lradius 58.6111
lwrist -12.8874
lhand -14.3394 -29.6886
lfingers 7.12502
lthumb 11.8018 -0.0411791
rfemur -27.152 -7.20664 24.5714
rtibia 74.3144
rfoot -37.2886 -21.8384
rtoes -18.5629
lfemur -46.742 7.26202 -1.25025
ltibia 5.71375
lfoot -21.4553 31.0405
ltoes -3.45019
453
root 4.85206 15.1196 -7.96554 3.38758 -56.5497 -8.79479
lowerback 23.8309 -6.64601 15.6486
upperback 14.9057 -6.56783 1.27582
thorax 2.41381 -2.72577 -5.89337
lowerneck 7.48701 -1.75654 -6.24915
upperneck -11.4176 -3.21194 0.118414
head -4.56069 -1.358 1.24888
rclavicle -1.47101e-014 3.45885e-014
rhumerus -67.8894 21.5882 -122.008
rradius 64.4802
rwrist 13.3235
rhand -8.67445 9.20768
rfingers 7.12502
rthumb 17.2598 -20.0459
lclavicle -1.47101e-014 3.45885e-014
lhumerus -66.404 -28.6544 130.462
lradius 58.6317
lwrist -11.4877
lhand -14.169 -29.6055
lfingers 7.12502
lthumb 11.9661 0.032443
rfemur -26.3278 -6.35789 23.6655
rtibia 73.7936
rfoot -37.0806 -22.4883
rtoes -18.8268
lfemur -45.3204 8.11785 -0.765653
ltibia 3.52714
lfoot -21.3229 30.5243
ltoes -2.30641
454
root 4.82462 15.1662 -7.88039 2.44601 -56.3062 -7.81989
lowerback 23.4678 -6.61898 15.6377
upperback 14.8515 -6.5827 1.2057
thorax 2.50753 -2.7177 -5.98711
lowerneck 7.62634 -1.8774 -6.3813
upperneck -11.1652 -3.39294 0.108939
head -4.49888 -1.44568 1.27631
rclavicle 1.90833e-014 -1.07344e-014
rhumerus -68.2668 21.8203 -122.285
rradius 64.6784
rwrist 12.0275
rhand -8.40885 9.17838
rfingers 7.12502
rthumb 17.5154 -20.0526
lclavicle 1.90833e-014 -1.07344e-014
lhumerus -66.5723 -28.3092 130.589
lradius 58.714
lwrist -10.245
lhand -14.1231 -29.4983
lfingers 7.12502
lthumb 12.0104 0.137079
rfemur -25.5468 -5.50466 22.9386
rtibia 73.2587
rfoot -36.8921 -23.1613
rtoes -18.9652
lfemur -43.2034 9.09346 0.0730927
ltibia -4.77083e-014
lfoot -20.1851 30.2487
ltoes -1.4588
455
root 4.7956 15.2108 -7.79576 1.50201 -56.0018 -6.82046
lowerback 23.0896 -6.58696 15.5734
upperback 14.7879 -6.6004 1.12044
thorax 2.5971 -2.71372 -6.06859
lowerneck 7.75927 -2.00155 -6.46325
upperneck -10.9803 -3.56653 0.159281
head -4.4561 -1.53401 1.31428
rclavicle -4.53229e-014 -5.36719e-014
rhumerus -68.6285 21.9691 -122.538
rradius 64.9016
rwrist 10.786
rhand -8.09988 9.19045
rfingers 7.12502
rthumb 17.8127 -20.0137
lclavicle -4.53229e-014 -5.36719e-014
lhumerus -66.7883 -27.9443 130.683
lradius 58.8578
lwrist -9.16175
lhand -14.1823 -29.4184
lfingers 7.12502
lthumb 11.9534 0.220351
rfemur -24.7812 -4.70727 22.2179
rtibia 72.7253
rfoot -36.7372 -23.8298
rtoes -18.9454
lfemur -42.9611 9.81121 0.560277
ltibia 3.49861e-014
lfoot -20.7065 29.6828
ltoes -0.877955
456
root 4.7655 15.2526 -7.71114 0.684064 -55.6255 -5.95331
lowerback 22.695 -6.56559 15.5558
upperback 14.7206 -6.62479 1.04286
thorax 2.68912 -2.71026 -6.16637
lowerneck 7.88014 -2.12912 -6.50778
upperneck -10.8709 -3.73739 0.246931
head -4.43406 -1.62319 1.35831
rclavicle -7.15625e-015 -7.95139e-015
rhumerus -68.9591 22.0285 -122.76
rradius 65.1386
rwrist 9.66261
rhand -7.78075 9.21167
rfingers 7.12502
rthumb 18.1198 -19.9643
lclavicle -7.15625e-015 -7.95139e-015
lhumerus -67.04 -27.6181 130.763
lradius 59.0535
lwrist -8.21173
lhand -14.3064 -29.4032
lfingers 7.12502
lthumb 11.8336 0.242402
rfemur -24.0232 -3.96707 21.6011
rtibia 72.1861
rfoot -36.6096 -24.5306
rtoes -18.8011
lfemur -42.7325 10.4481 1.09173
ltibia -6.36111e-015
lfoot -21.0144 29.1669
ltoes -0.530484
